<?xml version="1.0" encoding="UTF-8" standalone="no"?><!-- Generator: Gravit.io --><svg xmlns="http://www.w3.org/2000/svg" xmlns:xlink="http://www.w3.org/1999/xlink" style="isolation:isolate" viewBox="0 0 1280 800" width="1280pt" height="800pt"><defs><clipPath id="_clipPath_nZ7vBoYkpaNsMBGRWL1JxNc0ewziVITz"><rect width="1280" height="800"/></clipPath></defs><g clip-path="url(#_clipPath_nZ7vBoYkpaNsMBGRWL1JxNc0ewziVITz)"><rect x="472" y="233" width="157" height="232" transform="matrix(1,0,0,1,0,0)" fill="rgb(74,134,232)"/><clipPath id="_clipPath_dGjAtMOYDCNWqTWMIP74fnZiJWPf9Ahr"><rect x="472" y="233" width="157" height="232" transform="matrix(1,0,0,1,0,0)" fill="rgb(74,134,232)"/></clipPath><g clip-path="url(#_clipPath_dGjAtMOYDCNWqTWMIP74fnZiJWPf9Ahr)"><rect x="616.5" y="234.523" width="47" height="276" transform="matrix(0.996,0.087,-0.087,0.996,34.903,-54.362)" fill="rgb(255,255,255)"/><rect x="437.938" y="234.523" width="47" height="276" transform="matrix(0.996,-0.087,0.087,0.996,-30.712,41.635)" fill="rgb(255,255,255)"/></g><rect x="493" y="249" width="115" height="216" transform="matrix(1,0,0,1,0,0)" fill="rgb(255,255,255)"/><rect x="493" y="457" width="115" height="11" transform="matrix(1,0,0,1,0,0)" fill="rgb(74,134,232)"/><path d=" M 487 311.6 C 514.111 291.711 535.828 296.24 553 308.6 C 569.878 320.749 598.999 315.87 612 304.6" fill="none" vector-effect="non-scaling-stroke" stroke-width="4" stroke="rgb(74,134,232)" stroke-linejoin="miter" stroke-linecap="square" stroke-miterlimit="3"/><rect x="447.304" y="234.099" width="37" height="270" transform="matrix(0.996,-0.087,0.087,0.996,-30.397,42.002)" fill="rgb(255,255,255)"/><rect x="617.304" y="234.099" width="37" height="270" transform="matrix(0.996,0.087,-0.087,0.996,34.588,-54.009)" fill="rgb(255,255,255)"/></g></svg>